<svg xmlns="http://www.w3.org/2000/svg" xmlns:xlink="http://www.w3.org/1999/xlink" width="400" zoomAndPan="magnify" viewBox="0 0 300 74.999997" height="100" preserveAspectRatio="xMidYMid meet" version="1.0"><defs><g/><clipPath id="8cb305148a"><path d="M 18 37 L 55.5 37 L 55.5 71.25 L 18 71.25 Z M 18 37 " clip-rule="nonzero"/></clipPath><clipPath id="1241422acb"><path d="M 27 3.75 L 35 3.75 L 35 11 L 27 11 Z M 27 3.75 " clip-rule="nonzero"/></clipPath><clipPath id="3a4a97c344"><path d="M 0.75 14 L 24 14 L 24 38 L 0.75 38 Z M 0.75 14 " clip-rule="nonzero"/></clipPath></defs><g clip-path="url(#8cb305148a)"><path fill="#000000" d="M 37.636719 71.246094 C 20.289062 71.246094 19.972656 71.078125 19.785156 70.976562 C 19.117188 70.628906 18.613281 69.980469 18.4375 69.25 C 18.28125 68.601562 18.394531 67.957031 18.757812 67.433594 L 29.921875 51.496094 L 29.921875 45.191406 L 43.859375 45.191406 L 43.859375 51.496094 L 55.023438 67.433594 C 55.390625 67.957031 55.503906 68.601562 55.347656 69.25 C 55.167969 69.980469 54.664062 70.628906 54 70.980469 C 53.785156 71.089844 53.492188 71.246094 37.636719 71.246094 Z M 40.863281 62.105469 C 39.085938 62.105469 37.640625 60.65625 37.640625 58.875 C 37.640625 57.089844 39.085938 55.640625 40.863281 55.640625 C 42.640625 55.640625 44.085938 57.089844 44.085938 58.875 C 44.085938 60.65625 42.640625 62.105469 40.863281 62.105469 Z M 33.277344 61.011719 C 31.847656 61.011719 30.679688 59.84375 30.679688 58.402344 C 30.679688 56.964844 31.847656 55.796875 33.277344 55.796875 C 34.714844 55.796875 35.878906 56.964844 35.878906 58.402344 C 35.878906 59.84375 34.714844 61.011719 33.277344 61.011719 Z M 33.277344 57.339844 C 32.695312 57.339844 32.21875 57.816406 32.21875 58.402344 C 32.21875 58.988281 32.695312 59.46875 33.277344 59.46875 C 33.863281 59.46875 34.339844 58.988281 34.339844 58.402344 C 34.339844 57.816406 33.863281 57.339844 33.277344 57.339844 Z M 29.09375 67.765625 C 27.464844 67.765625 26.136719 66.433594 26.136719 64.796875 C 26.136719 63.160156 27.464844 61.832031 29.09375 61.832031 C 30.722656 61.832031 32.050781 63.160156 32.050781 64.796875 C 32.050781 66.433594 30.722656 67.765625 29.09375 67.765625 Z M 29.09375 63.375 C 28.3125 63.375 27.675781 64.011719 27.675781 64.796875 C 27.675781 65.582031 28.3125 66.21875 29.09375 66.21875 C 29.875 66.21875 30.511719 65.582031 30.511719 64.796875 C 30.511719 64.011719 29.875 63.375 29.09375 63.375 Z M 36.960938 54.738281 C 35.507812 54.738281 34.324219 53.550781 34.324219 52.09375 C 34.324219 50.632812 35.507812 49.449219 36.960938 49.449219 C 38.414062 49.449219 39.59375 50.632812 39.59375 52.09375 C 39.59375 53.550781 38.414062 54.738281 36.960938 54.738281 Z M 36.960938 50.992188 C 36.355469 50.992188 35.863281 51.484375 35.863281 52.09375 C 35.863281 52.699219 36.355469 53.191406 36.960938 53.191406 C 37.5625 53.191406 38.054688 52.699219 38.054688 52.09375 C 38.054688 51.484375 37.566406 50.992188 36.960938 50.992188 Z M 36.972656 68.074219 C 35.597656 68.074219 34.480469 66.953125 34.480469 65.570312 C 34.480469 64.191406 35.597656 63.070312 36.972656 63.070312 C 38.347656 63.070312 39.464844 64.191406 39.464844 65.570312 C 39.464844 66.953125 38.347656 68.074219 36.972656 68.074219 Z M 36.972656 64.613281 C 36.445312 64.613281 36.019531 65.042969 36.019531 65.570312 C 36.019531 66.097656 36.445312 66.527344 36.972656 66.527344 C 37.496094 66.527344 37.925781 66.097656 37.925781 65.570312 C 37.925781 65.042969 37.496094 64.613281 36.972656 64.613281 Z M 40.863281 57.183594 C 39.9375 57.183594 39.179688 57.941406 39.179688 58.871094 C 39.179688 59.804688 39.9375 60.5625 40.863281 60.5625 C 41.789062 60.5625 42.546875 59.804688 42.546875 58.871094 C 42.546875 57.941406 41.789062 57.183594 40.863281 57.183594 Z M 29.921875 43.644531 L 29.921875 37.089844 L 43.859375 37.089844 L 43.859375 43.644531 Z M 29.921875 43.644531 " fill-opacity="1" fill-rule="evenodd"/></g><path fill="#000000" d="M 44.042969 35.507812 L 29.769531 35.507812 C 27.636719 35.507812 25.902344 33.765625 25.902344 31.625 C 25.902344 29.480469 27.636719 27.738281 29.769531 27.738281 L 44.042969 27.738281 C 46.175781 27.738281 47.914062 29.484375 47.914062 31.625 C 47.914062 33.765625 46.175781 35.507812 44.042969 35.507812 Z M 44.042969 35.507812 " fill-opacity="1" fill-rule="evenodd"/><path fill="#000000" d="M 36.492188 16.804688 C 34.863281 16.804688 33.535156 15.472656 33.535156 13.835938 C 33.535156 12.199219 34.863281 10.867188 36.492188 10.867188 C 38.121094 10.867188 39.449219 12.199219 39.449219 13.835938 C 39.449219 15.472656 38.121094 16.804688 36.492188 16.804688 Z M 36.492188 16.804688 " fill-opacity="1" fill-rule="evenodd"/><g clip-path="url(#1241422acb)"><path fill="#000000" d="M 31.171875 10.933594 C 29.199219 10.933594 27.59375 9.324219 27.59375 7.347656 C 27.59375 5.367188 29.199219 3.757812 31.171875 3.757812 C 33.140625 3.757812 34.746094 5.367188 34.746094 7.347656 C 34.746094 9.324219 33.140625 10.933594 31.171875 10.933594 Z M 31.171875 10.933594 " fill-opacity="1" fill-rule="evenodd"/></g><path fill="#000000" d="M 35.160156 25.242188 C 33.566406 25.242188 32.269531 23.9375 32.269531 22.339844 C 32.269531 20.738281 33.566406 19.4375 35.160156 19.4375 C 36.753906 19.4375 38.050781 20.738281 38.050781 22.339844 C 38.050781 23.9375 36.753906 25.242188 35.160156 25.242188 Z M 35.160156 25.242188 " fill-opacity="1" fill-rule="evenodd"/><path fill="#000000" d="M 42.03125 24.964844 C 40.402344 24.964844 39.074219 23.636719 39.074219 22 C 39.074219 20.363281 40.402344 19.03125 42.03125 19.03125 C 43.660156 19.03125 44.988281 20.363281 44.988281 22 C 44.988281 23.636719 43.660156 24.964844 42.03125 24.964844 Z M 42.03125 24.964844 " fill-opacity="1" fill-rule="evenodd"/><path fill="#000000" d="M 27.207031 22.621094 C 27 22.621094 26.804688 22.539062 26.660156 22.394531 L 15.636719 11.328125 C 15.335938 11.027344 15.335938 10.539062 15.636719 10.238281 L 19.796875 6.058594 C 20.085938 5.769531 20.597656 5.769531 20.886719 6.058594 L 31.910156 17.125 C 32.210938 17.425781 32.210938 17.917969 31.910156 18.21875 L 27.75 22.394531 C 27.605469 22.539062 27.410156 22.621094 27.207031 22.621094 Z M 27.207031 22.621094 " fill-opacity="1" fill-rule="evenodd"/><g clip-path="url(#3a4a97c344)"><path fill="#000000" d="M 6.246094 37.335938 C 4.773438 37.335938 3.390625 36.761719 2.355469 35.722656 C 1.320312 34.683594 0.75 33.296875 0.75 31.820312 C 0.75 30.339844 1.320312 28.953125 2.355469 27.914062 L 3.152344 27.117188 L 6.59375 30.570312 C 6.746094 30.722656 6.941406 30.796875 7.140625 30.796875 C 7.335938 30.796875 7.535156 30.722656 7.683594 30.570312 C 7.984375 30.269531 7.984375 29.78125 7.683594 29.476562 L 4.242188 26.023438 L 6.292969 23.964844 L 9.734375 27.417969 C 9.886719 27.570312 10.082031 27.644531 10.28125 27.644531 C 10.476562 27.644531 10.671875 27.570312 10.824219 27.417969 C 11.125 27.117188 11.125 26.628906 10.824219 26.328125 L 7.382812 22.871094 L 9.433594 20.8125 L 12.875 24.265625 C 13.027344 24.417969 13.222656 24.492188 13.421875 24.492188 C 13.617188 24.492188 13.8125 24.417969 13.964844 24.265625 C 14.265625 23.964844 14.265625 23.476562 13.964844 23.175781 L 10.523438 19.71875 L 12.574219 17.660156 L 16.015625 21.117188 C 16.164062 21.265625 16.363281 21.34375 16.558594 21.34375 C 16.757812 21.34375 16.953125 21.265625 17.105469 21.117188 C 17.40625 20.8125 17.40625 20.324219 17.105469 20.023438 L 13.664062 16.566406 L 16.144531 14.074219 L 23.925781 21.882812 L 10.136719 35.722656 C 9.097656 36.761719 7.71875 37.335938 6.246094 37.335938 Z M 6.246094 37.335938 " fill-opacity="1" fill-rule="evenodd"/></g><path fill="#000000" d="M 15.464844 62.457031 L 10.34375 62.457031 C 9.972656 62.457031 9.65625 62.195312 9.585938 61.832031 L 8.953125 58.511719 C 8.558594 58.320312 8.175781 58.097656 7.8125 57.851562 L 4.632812 58.960938 C 4.28125 59.078125 3.894531 58.9375 3.710938 58.617188 L 1.152344 54.164062 C 0.964844 53.84375 1.035156 53.4375 1.316406 53.195312 L 3.863281 50.984375 C 3.847656 50.761719 3.839844 50.542969 3.839844 50.320312 C 3.839844 50.101562 3.847656 49.882812 3.863281 49.660156 L 1.316406 47.449219 C 1.035156 47.207031 0.96875 46.800781 1.152344 46.480469 L 3.710938 42.03125 C 3.894531 41.707031 4.285156 41.566406 4.632812 41.6875 L 7.8125 42.792969 C 8.175781 42.546875 8.558594 42.324219 8.953125 42.132812 L 9.585938 38.8125 C 9.65625 38.449219 9.972656 38.1875 10.34375 38.1875 L 15.464844 38.1875 C 15.832031 38.1875 16.148438 38.449219 16.21875 38.8125 L 16.851562 42.132812 C 17.25 42.324219 17.628906 42.546875 17.992188 42.792969 L 21.175781 41.683594 C 21.523438 41.5625 21.910156 41.707031 22.09375 42.027344 L 24.65625 46.480469 C 24.839844 46.800781 24.769531 47.207031 24.492188 47.449219 L 21.945312 49.660156 C 21.960938 49.882812 21.96875 50.101562 21.96875 50.320312 C 21.96875 50.539062 21.960938 50.761719 21.945312 50.980469 L 24.492188 53.191406 C 24.773438 53.433594 24.839844 53.84375 24.65625 54.164062 L 22.09375 58.613281 C 21.910156 58.9375 21.527344 59.078125 21.175781 58.957031 L 17.996094 57.847656 C 17.632812 58.097656 17.25 58.320312 16.851562 58.511719 L 16.21875 61.832031 C 16.148438 62.195312 15.832031 62.457031 15.464844 62.457031 Z M 12.902344 55.527344 C 10.042969 55.527344 7.71875 53.191406 7.71875 50.324219 C 7.71875 47.453125 10.042969 45.121094 12.902344 45.121094 C 15.761719 45.121094 18.089844 47.453125 18.089844 50.324219 C 18.089844 53.191406 15.761719 55.527344 12.902344 55.527344 Z M 12.902344 46.664062 C 10.894531 46.664062 9.257812 48.304688 9.257812 50.324219 C 9.257812 52.339844 10.894531 53.980469 12.902344 53.980469 C 14.914062 53.980469 16.546875 52.339844 16.546875 50.324219 C 16.546875 48.304688 14.914062 46.664062 12.902344 46.664062 Z M 12.902344 46.664062 " fill-opacity="1" fill-rule="evenodd"/><g fill="#000000" fill-opacity="1"><g transform="translate(73.973275, 55.282962)"><g><path d="M 2.21875 -30.578125 L 13.375 -30.578125 C 16.488281 -30.578125 19.007812 -29.773438 20.9375 -28.171875 C 22.863281 -26.566406 23.828125 -24.226562 23.828125 -21.15625 C 23.828125 -18.09375 22.847656 -15.691406 20.890625 -13.953125 C 18.941406 -12.210938 16.4375 -11.34375 13.375 -11.34375 L 9.1875 -11.34375 L 9.1875 0 L 2.21875 0 Z M 9.1875 -16.90625 L 11.15625 -16.90625 C 12.707031 -16.90625 13.984375 -17.21875 14.984375 -17.84375 C 15.992188 -18.476562 16.5 -19.507812 16.5 -20.9375 C 16.5 -22.394531 15.992188 -23.4375 14.984375 -24.0625 C 13.984375 -24.695312 12.707031 -25.015625 11.15625 -25.015625 L 9.1875 -25.015625 Z M 9.1875 -16.90625 "/></g></g></g><g fill="#000000" fill-opacity="1"><g transform="translate(98.656735, 55.282962)"><g><path d="M 2.21875 0 L 2.21875 -19.015625 L 8.78125 -19.015625 L 8.78125 -16.265625 L 8.859375 -16.265625 C 8.910156 -16.367188 8.988281 -16.492188 9.09375 -16.640625 C 9.207031 -16.785156 9.445312 -17.039062 9.8125 -17.40625 C 10.1875 -17.78125 10.582031 -18.113281 11 -18.40625 C 11.425781 -18.707031 11.972656 -18.972656 12.640625 -19.203125 C 13.304688 -19.441406 13.984375 -19.5625 14.671875 -19.5625 C 15.390625 -19.5625 16.09375 -19.460938 16.78125 -19.265625 C 17.476562 -19.066406 17.988281 -18.867188 18.3125 -18.671875 L 18.828125 -18.390625 L 16.078125 -12.828125 C 15.265625 -13.515625 14.128906 -13.859375 12.671875 -13.859375 C 11.878906 -13.859375 11.195312 -13.6875 10.625 -13.34375 C 10.0625 -13 9.660156 -12.578125 9.421875 -12.078125 C 9.191406 -11.585938 9.023438 -11.164062 8.921875 -10.8125 C 8.828125 -10.46875 8.78125 -10.195312 8.78125 -10 L 8.78125 0 Z M 2.21875 0 "/></g></g></g><g fill="#000000" fill-opacity="1"><g transform="translate(117.113733, 55.282962)"><g><path d="M 4.015625 -2.25 C 1.910156 -4.132812 0.859375 -6.546875 0.859375 -9.484375 C 0.859375 -12.421875 1.957031 -14.832031 4.15625 -16.71875 C 6.351562 -18.613281 9.070312 -19.5625 12.3125 -19.5625 C 15.488281 -19.5625 18.171875 -18.609375 20.359375 -16.703125 C 22.546875 -14.804688 23.640625 -12.398438 23.640625 -9.484375 C 23.640625 -6.566406 22.570312 -4.160156 20.4375 -2.265625 C 18.300781 -0.378906 15.59375 0.5625 12.3125 0.5625 C 8.894531 0.5625 6.128906 -0.375 4.015625 -2.25 Z M 9.09375 -12.703125 C 8.238281 -11.867188 7.8125 -10.796875 7.8125 -9.484375 C 7.8125 -8.179688 8.21875 -7.113281 9.03125 -6.28125 C 9.851562 -5.457031 10.929688 -5.046875 12.265625 -5.046875 C 13.546875 -5.046875 14.597656 -5.460938 15.421875 -6.296875 C 16.253906 -7.140625 16.671875 -8.203125 16.671875 -9.484375 C 16.671875 -10.796875 16.242188 -11.867188 15.390625 -12.703125 C 14.546875 -13.546875 13.503906 -13.96875 12.265625 -13.96875 C 11.003906 -13.96875 9.945312 -13.546875 9.09375 -12.703125 Z M 9.09375 -12.703125 "/></g></g></g><g fill="#000000" fill-opacity="1"><g transform="translate(141.611885, 55.282962)"><g><path d="M 2.84375 -29.609375 C 3.613281 -30.378906 4.53125 -30.765625 5.59375 -30.765625 C 6.65625 -30.765625 7.566406 -30.378906 8.328125 -29.609375 C 9.097656 -28.847656 9.484375 -27.9375 9.484375 -26.875 C 9.484375 -25.8125 9.097656 -24.894531 8.328125 -24.125 C 7.566406 -23.363281 6.65625 -22.984375 5.59375 -22.984375 C 4.53125 -22.984375 3.613281 -23.363281 2.84375 -24.125 C 2.082031 -24.894531 1.703125 -25.8125 1.703125 -26.875 C 1.703125 -27.9375 2.082031 -28.847656 2.84375 -29.609375 Z M 2.21875 -19.015625 L 2.21875 1.671875 C 2.21875 3.398438 1.613281 4.265625 0.40625 4.265625 C 0.15625 4.265625 -0.101562 4.21875 -0.375 4.125 C -0.644531 4.039062 -0.863281 3.953125 -1.03125 3.859375 L -1.265625 3.703125 L -3.296875 9 C -3.242188 9.03125 -3.082031 9.101562 -2.8125 9.21875 C -2.539062 9.34375 -2.335938 9.4375 -2.203125 9.5 C -2.066406 9.5625 -1.835938 9.640625 -1.515625 9.734375 C -1.191406 9.835938 -0.878906 9.914062 -0.578125 9.96875 C -0.285156 10.019531 0.078125 10.066406 0.515625 10.109375 C 0.960938 10.160156 1.429688 10.1875 1.921875 10.1875 C 3.160156 10.1875 4.25 9.96875 5.1875 9.53125 C 6.125 9.101562 6.835938 8.523438 7.328125 7.796875 C 7.828125 7.066406 8.191406 6.300781 8.421875 5.5 C 8.660156 4.695312 8.78125 3.835938 8.78125 2.921875 L 8.78125 -19.015625 Z M 2.21875 -19.015625 "/></g></g></g><g fill="#000000" fill-opacity="1"><g transform="translate(152.619379, 55.282962)"><g><path d="M 21.453125 -8.59375 L 7.671875 -8.59375 C 7.671875 -7.257812 8.101562 -6.269531 8.96875 -5.625 C 9.832031 -4.988281 10.769531 -4.671875 11.78125 -4.671875 C 12.84375 -4.671875 13.679688 -4.8125 14.296875 -5.09375 C 14.921875 -5.375 15.628906 -5.9375 16.421875 -6.78125 L 21.15625 -4.40625 C 19.1875 -1.09375 15.898438 0.5625 11.296875 0.5625 C 8.429688 0.5625 5.972656 -0.421875 3.921875 -2.390625 C 1.878906 -4.359375 0.859375 -6.722656 0.859375 -9.484375 C 0.859375 -12.253906 1.878906 -14.625 3.921875 -16.59375 C 5.972656 -18.570312 8.429688 -19.5625 11.296875 -19.5625 C 14.316406 -19.5625 16.769531 -18.691406 18.65625 -16.953125 C 20.550781 -15.210938 21.5 -12.722656 21.5 -9.484375 C 21.5 -9.046875 21.484375 -8.75 21.453125 -8.59375 Z M 7.859375 -12.234375 L 15.078125 -12.234375 C 14.929688 -13.222656 14.539062 -13.984375 13.90625 -14.515625 C 13.28125 -15.046875 12.472656 -15.3125 11.484375 -15.3125 C 10.398438 -15.3125 9.535156 -15.023438 8.890625 -14.453125 C 8.253906 -13.890625 7.910156 -13.148438 7.859375 -12.234375 Z M 7.859375 -12.234375 "/></g></g></g><g fill="#000000" fill-opacity="1"><g transform="translate(174.96792, 55.282962)"><g><path d="M 3.328125 -19.015625 L 3.328125 -26.09375 L 9.890625 -26.09375 L 9.890625 -19.015625 L 13.890625 -19.015625 L 13.890625 -14.015625 L 9.890625 -14.015625 L 9.890625 -7.96875 C 9.890625 -6.21875 10.382812 -5.34375 11.375 -5.34375 C 11.625 -5.34375 11.882812 -5.390625 12.15625 -5.484375 C 12.425781 -5.585938 12.632812 -5.6875 12.78125 -5.78125 L 13.015625 -5.9375 L 14.640625 -0.625 C 13.234375 0.164062 11.628906 0.5625 9.828125 0.5625 C 8.585938 0.5625 7.519531 0.347656 6.625 -0.078125 C 5.738281 -0.515625 5.066406 -1.097656 4.609375 -1.828125 C 4.148438 -2.554688 3.820312 -3.320312 3.625 -4.125 C 3.425781 -4.9375 3.328125 -5.796875 3.328125 -6.703125 L 3.328125 -14.015625 L 0.59375 -14.015625 L 0.59375 -19.015625 Z M 3.328125 -19.015625 "/></g></g></g><g fill="#000000" fill-opacity="1"><g transform="translate(189.607505, 55.282962)"><g><path d="M 4.015625 -2.25 C 1.910156 -4.132812 0.859375 -6.546875 0.859375 -9.484375 C 0.859375 -12.421875 1.957031 -14.832031 4.15625 -16.71875 C 6.351562 -18.613281 9.070312 -19.5625 12.3125 -19.5625 C 15.488281 -19.5625 18.171875 -18.609375 20.359375 -16.703125 C 22.546875 -14.804688 23.640625 -12.398438 23.640625 -9.484375 C 23.640625 -6.566406 22.570312 -4.160156 20.4375 -2.265625 C 18.300781 -0.378906 15.59375 0.5625 12.3125 0.5625 C 8.894531 0.5625 6.128906 -0.375 4.015625 -2.25 Z M 9.09375 -12.703125 C 8.238281 -11.867188 7.8125 -10.796875 7.8125 -9.484375 C 7.8125 -8.179688 8.21875 -7.113281 9.03125 -6.28125 C 9.851562 -5.457031 10.929688 -5.046875 12.265625 -5.046875 C 13.546875 -5.046875 14.597656 -5.460938 15.421875 -6.296875 C 16.253906 -7.140625 16.671875 -8.203125 16.671875 -9.484375 C 16.671875 -10.796875 16.242188 -11.867188 15.390625 -12.703125 C 14.546875 -13.546875 13.503906 -13.96875 12.265625 -13.96875 C 11.003906 -13.96875 9.945312 -13.546875 9.09375 -12.703125 Z M 9.09375 -12.703125 "/></g></g></g><g fill="#000000" fill-opacity="1"><g transform="translate(214.105657, 55.282962)"><g><path d="M 19.90625 -30.578125 L 19.90625 -24.46875 L 9.1875 -24.46875 L 9.1875 -18.390625 L 19.09375 -18.390625 L 19.09375 -12.265625 L 9.1875 -12.265625 L 9.1875 0 L 2.21875 0 L 2.21875 -30.578125 Z M 19.90625 -30.578125 "/></g></g></g><g fill="#000000" fill-opacity="1"><g transform="translate(235.119947, 55.282962)"><g><path d="M 10.484375 -24.609375 L 18.015625 -31.125 L 21.390625 -26.875 L 12.5625 -21.75 Z M 3.515625 -16.640625 C 1.742188 -14.691406 0.859375 -12.304688 0.859375 -9.484375 C 0.859375 -6.671875 1.742188 -4.289062 3.515625 -2.34375 C 5.296875 -0.40625 7.554688 0.5625 10.296875 0.5625 C 12.816406 0.5625 14.894531 -0.34375 16.53125 -2.15625 L 16.609375 -2.15625 L 16.609375 0 L 23.09375 0 L 23.09375 -19.015625 L 16.53125 -19.015625 L 16.53125 -17.203125 C 14.894531 -18.773438 12.816406 -19.5625 10.296875 -19.5625 C 7.554688 -19.5625 5.296875 -18.585938 3.515625 -16.640625 Z M 9.03125 -6.28125 C 8.21875 -7.113281 7.8125 -8.179688 7.8125 -9.484375 C 7.8125 -10.796875 8.238281 -11.867188 9.09375 -12.703125 C 9.945312 -13.546875 11.003906 -13.96875 12.265625 -13.96875 C 13.503906 -13.96875 14.546875 -13.546875 15.390625 -12.703125 C 16.242188 -11.867188 16.671875 -10.796875 16.671875 -9.484375 C 16.671875 -8.203125 16.253906 -7.140625 15.421875 -6.296875 C 14.597656 -5.460938 13.546875 -5.046875 12.265625 -5.046875 C 10.929688 -5.046875 9.851562 -5.457031 9.03125 -6.28125 Z M 9.03125 -6.28125 "/></g></g></g><g fill="#000000" fill-opacity="1"><g transform="translate(260.433461, 55.282962)"><g><path d="M 12.34375 -14.1875 C 11.101562 -14.1875 10.035156 -13.726562 9.140625 -12.8125 C 8.253906 -11.90625 7.8125 -10.8125 7.8125 -9.53125 C 7.8125 -8.21875 8.253906 -7.101562 9.140625 -6.1875 C 10.035156 -5.269531 11.101562 -4.8125 12.34375 -4.8125 C 12.9375 -4.8125 13.5 -4.882812 14.03125 -5.03125 C 14.5625 -5.1875 14.953125 -5.335938 15.203125 -5.484375 L 15.53125 -5.703125 L 17.75 -1.15625 C 17.582031 -1.03125 17.34375 -0.875 17.03125 -0.6875 C 16.71875 -0.5 16.007812 -0.242188 14.90625 0.078125 C 13.8125 0.398438 12.632812 0.5625 11.375 0.5625 C 8.582031 0.5625 6.128906 -0.421875 4.015625 -2.390625 C 1.910156 -4.359375 0.859375 -6.710938 0.859375 -9.453125 C 0.859375 -12.222656 1.910156 -14.597656 4.015625 -16.578125 C 6.128906 -18.566406 8.582031 -19.5625 11.375 -19.5625 C 12.632812 -19.5625 13.796875 -19.410156 14.859375 -19.109375 C 15.921875 -18.816406 16.675781 -18.523438 17.125 -18.234375 L 17.75 -17.796875 L 15.53125 -13.3125 C 14.71875 -13.894531 13.65625 -14.1875 12.34375 -14.1875 Z M 12.34375 -14.1875 "/></g></g></g><g fill="#000000" fill-opacity="1"><g transform="translate(278.631022, 55.282962)"><g><path d="M 2.84375 -29.609375 C 3.613281 -30.378906 4.53125 -30.765625 5.59375 -30.765625 C 6.65625 -30.765625 7.566406 -30.378906 8.328125 -29.609375 C 9.097656 -28.847656 9.484375 -27.9375 9.484375 -26.875 C 9.484375 -25.8125 9.097656 -24.894531 8.328125 -24.125 C 7.566406 -23.363281 6.65625 -22.984375 5.59375 -22.984375 C 4.53125 -22.984375 3.613281 -23.363281 2.84375 -24.125 C 2.082031 -24.894531 1.703125 -25.8125 1.703125 -26.875 C 1.703125 -27.9375 2.082031 -28.847656 2.84375 -29.609375 Z M 2.21875 -19.015625 L 2.21875 0 L 8.78125 0 L 8.78125 -19.015625 Z M 2.21875 -19.015625 "/></g></g></g><g fill="#000000" fill-opacity="1"><g transform="translate(289.823824, 55.282962)"><g><path d="M 2.21875 0 L 2.21875 -31.875 L 8.78125 -31.875 L 8.78125 0 Z M 2.21875 0 "/></g></g></g></svg>